ffmpeg version 4.2.7-0ubuntu0.1 Copyright (c) 2000-2022 the FFmpeg developers
  built with gcc 9 (Ubuntu 9.4.0-1ubuntu1~20.04.1)
  configuration: --prefix=/usr --extra-version=0ubuntu0.1 --toolchain=hardened --libdir=/usr/lib/x86_64-linux-gnu --incdir=/usr/include/x86_64-linux-gnu --arch=amd64 --enable-gpl --disable-stripping --enable-avresample --disable-filter=resample --enable-avisynth --enable-gnutls --enable-ladspa --enable-libaom --enable-libass --enable-libbluray --enable-libbs2b --enable-libcaca --enable-libcdio --enable-libcodec2 --enable-libflite --enable-libfontconfig --enable-libfreetype --enable-libfribidi --enable-libgme --enable-libgsm --enable-libjack --enable-libmp3lame --enable-libmysofa --enable-libopenjpeg --enable-libopenmpt --enable-libopus --enable-libpulse --enable-librsvg --enable-librubberband --enable-libshine --enable-libsnappy --enable-libsoxr --enable-libspeex --enable-libssh --enable-libtheora --enable-libtwolame --enable-libvidstab --enable-libvorbis --enable-libvpx --enable-libwavpack --enable-libwebp --enable-libx265 --enable-libxml2 --enable-libxvid --enable-libzmq --enable-libzvbi --enable-lv2 --enable-omx --enable-openal --enable-opencl --enable-opengl --enable-sdl2 --enable-libdc1394 --enable-libdrm --enable-libiec61883 --enable-nvenc --enable-chromaprint --enable-frei0r --enable-libx264 --enable-shared
  libavutil      56. 31.100 / 56. 31.100
  libavcodec     58. 54.100 / 58. 54.100
  libavformat    58. 29.100 / 58. 29.100
  libavdevice    58.  8.100 / 58.  8.100
  libavfilter     7. 57.100 /  7. 57.100
  libavresample   4.  0.  0 /  4.  0.  0
  libswscale      5.  5.100 /  5.  5.100
  libswresample   3.  5.100 /  3.  5.100
  libpostproc    55.  5.100 / 55.  5.100
Routing option strict to both codec and muxer layer
[h264 @ 0x55e80cc43a00] Reinit context to 1920x1088, pix_fmt: yuv420p
Input #0, mov,mp4,m4a,3gp,3g2,mj2, from '/var/www/html/project/media/video/original/Belle2.mp4':
  Metadata:
    major_brand     : mp42
    minor_version   : 1
    compatible_brands: isommp41mp42
    creation_time   : 2023-12-29T15:59:10.000000Z
  Duration: 00:01:28.22, start: 0.000000, bitrate: 19610 kb/s
    Stream #0:0(eng): Audio: aac (LC) (mp4a / 0x6134706D), 48000 Hz, stereo, fltp, 125 kb/s (default)
    Metadata:
      creation_time   : 2023-12-29T15:59:10.000000Z
      handler_name    : Core Media Audio
    Stream #0:1(und): Video: h264 (High), 1 reference frame (avc1 / 0x31637661), yuv420p(tv, bt709, progressive, left), 1920x1080 (1920x1088), 19430 kb/s, SAR 1:1 DAR 16:9, 50 fps, 50 tbr, 50k tbn, 100k tbc (default)
    Metadata:
      creation_time   : 2023-12-29T15:59:11.000000Z
      handler_name    : Core Media Video
Input #1, png_pipe, from '/var/www/html/project/static/images/templates/logo.png':
  Duration: N/A, bitrate: N/A
    Stream #1:0: Video: png, 1 reference frame, rgba(pc), 1920x1080 [SAR 2835:2835 DAR 16:9], 25 tbr, 25 tbn, 25 tbc
[Parsed_scale_0 @ 0x55e80cc51640] w:1280 h:720 flags:'bilinear' interl:0
[Parsed_scale_2 @ 0x55e80cc82200] w:1280 h:720 flags:'bilinear' interl:0
Stream mapping:
  Stream #0:1 (h264) -> scale (graph 0)
  Stream #1:0 (png) -> scale (graph 0)
  overlay (graph 0) -> Stream #0:0 (libx264)
  Stream #0:0 -> #0:1 (aac (native) -> aac (native))
Press [q] to stop, [?] for help
[graph_1_in_0_0 @ 0x55e80d011200] tb:1/48000 samplefmt:fltp samplerate:48000 chlayout:0x3
[h264 @ 0x55e80cc67c80] Reinit context to 1920x1088, pix_fmt: yuv420p
[Parsed_scale_0 @ 0x55e80cc92e80] w:1280 h:720 flags:'bilinear' interl:0
[Parsed_scale_2 @ 0x55e80dcccbc0] w:1280 h:720 flags:'bilinear' interl:0
[graph 0 input from stream 0:1 @ 0x55e80dccecc0] w:1920 h:1080 pixfmt:yuv420p tb:1/50000 fr:50/1 sar:1/1 sws_param:flags=2
[graph 0 input from stream 1:0 @ 0x55e80dccfd40] w:1920 h:1080 pixfmt:rgba tb:1/25 fr:25/1 sar:2835/2835 sws_param:flags=2
[Parsed_scale_0 @ 0x55e80cc92e80] w:1920 h:1080 fmt:yuv420p sar:1/1 -> w:1280 h:720 fmt:yuv420p sar:1/1 flags:0x2
[Parsed_setsar_1 @ 0x55e80d0be8c0] w:1280 h:720 sar:1/1 dar:16/9 -> sar:1/1 dar:16/9
[Parsed_scale_2 @ 0x55e80dcccbc0] w:1920 h:1080 fmt:rgba sar:2835/2835 -> w:1280 h:720 fmt:yuva420p sar:1/1 flags:0x2
[Parsed_setsar_3 @ 0x55e80dccd280] w:1280 h:720 sar:1/1 dar:16/9 -> sar:1/1 dar:16/9
[Parsed_overlay_4 @ 0x55e80dccdf00] main w:1280 h:720 fmt:yuv420p overlay w:1280 h:720 fmt:yuva420p
[Parsed_overlay_4 @ 0x55e80dccdf00] [framesync @ 0x55e80dcce028] Selected 1/50000 time base
[Parsed_overlay_4 @ 0x55e80dccdf00] [framesync @ 0x55e80dcce028] Sync level 2
[libx264 @ 0x55e80cc58780] using SAR=1/1
[libx264 @ 0x55e80cc58780] using cpu capabilities: MMX2 SSE2Fast SSSE3 SSE4.2 AVX FMA3 BMI2 AVX2
[libx264 @ 0x55e80cc58780] profile High, level 3.2
[libx264 @ 0x55e80cc58780] 264 - core 155 r2917 0a84d98 - H.264/MPEG-4 AVC codec - Copyleft 2003-2018 - http://www.videolan.org/x264.html - options: cabac=1 ref=1 deblock=1:0:0 analyse=0x3:0x113 me=hex subme=2 psy=1 psy_rd=1.00:0.00 mixed_ref=0 me_range=16 chroma_me=1 trellis=0 8x8dct=1 cqm=0 deadzone=21,11 fast_pskip=1 chroma_qp_offset=0 threads=22 lookahead_threads=5 sliced_threads=0 nr=0 decimate=1 interlaced=0 bluray_compat=0 constrained_intra=0 bframes=3 b_pyramid=2 b_adapt=1 b_bias=0 direct=1 weightb=1 open_gop=0 weightp=1 keyint=250 keyint_min=25 scenecut=40 intra_refresh=0 rc_lookahead=10 rc=crf mbtree=1 crf=18.0 qcomp=0.60 qpmin=0 qpmax=69 qpstep=4 ip_ratio=1.40 aq=1:1.00
Output #0, mp4, to '/var/www/html/project/media/video/watermarks/Belle2.mp4':
  Metadata:
    major_brand     : mp42
    minor_version   : 1
    compatible_brands: isommp41mp42
    encoder         : Lavf58.29.100
    Stream #0:0: Video: h264 (libx264), 1 reference frame (avc1 / 0x31637661), yuv420p, 1280x720 [SAR 1:1 DAR 16:9], q=-1--1, 50 fps, 12800 tbn, 50 tbc (default)
    Metadata:
      encoder         : Lavc58.54.100 libx264
    Side data:
      cpb: bitrate max/min/avg: 0/0/0 buffer size: 0 vbv_delay: -1
    Stream #0:1(eng): Audio: aac (LC) (mp4a / 0x6134706D), 48000 Hz, stereo, fltp, delay 1024, 128 kb/s (default)
    Metadata:
      creation_time   : 2023-12-29T15:59:10.000000Z
      handler_name    : Core Media Audio
      encoder         : Lavc58.54.100 aac
[Parsed_overlay_4 @ 0x55e80dccdf00] [framesync @ 0x55e80dcce028] Sync level 0
No more output streams to write to, finishing.
frame= 4411 fps= 71 q=-1.0 Lsize=  101442kB time=00:01:28.23 bitrate=9418.2kbits/s speed=1.43x    
[AVIOContext @ 0x55e80cc400c0] Statistics: 0 seeks, 122 writeouts
video:99951kB audio:1384kB subtitle:0kB other streams:0kB global headers:0kB muxing overhead: 0.105382%
Input file #0 (/var/www/html/project/media/video/original/Belle2.mp4):
  Input stream #0:0 (audio): 4138 packets read (1388887 bytes); 4136 frames decoded (4235200 samples); 
  Input stream #0:1 (video): 4411 packets read (214272828 bytes); 4411 frames decoded; 
  Total: 8549 packets (215661715 bytes) demuxed
Input file #1 (/var/www/html/project/static/images/templates/logo.png):
  Input stream #1:0 (video): 1 packets read (111578 bytes); 1 frames decoded; 
  Total: 1 packets (111578 bytes) demuxed
Output file #0 (/var/www/html/project/media/video/watermarks/Belle2.mp4):
  Output stream #0:0 (video): 4411 frames encoded; 4411 packets muxed (102350303 bytes); 
  Output stream #0:1 (audio): 4136 frames encoded (4235200 samples); 4137 packets muxed (1417214 bytes); 
  Total: 8548 packets (103767517 bytes) muxed
[AVIOContext @ 0x55e80cc85fc0] Statistics: 2 seeks, 399 writeouts
[libx264 @ 0x55e80cc58780] frame I:31    Avg QP:19.23  size:147118
[libx264 @ 0x55e80cc58780] frame P:1298  Avg QP:22.59  size: 51158
[libx264 @ 0x55e80cc58780] frame B:3082  Avg QP:25.92  size: 10184
[libx264 @ 0x55e80cc58780] consecutive B-frames:  3.6%  7.8%  5.8% 82.8%
[libx264 @ 0x55e80cc58780] mb I  I16..4:  3.0% 15.1% 81.9%
[libx264 @ 0x55e80cc58780] mb P  I16..4:  1.9%  8.1%  4.7%  P16..4: 40.5% 20.8% 19.0%  0.0%  0.0%    skip: 5.0%
[libx264 @ 0x55e80cc58780] mb B  I16..4:  0.3%  0.6%  0.2%  B16..8: 19.2%  8.7%  2.3%  direct:13.1%  skip:55.6%  L0:27.2% L1:41.9% BI:30.9%
[libx264 @ 0x55e80cc58780] 8x8 transform intra:50.2% inter:32.3%
[libx264 @ 0x55e80cc58780] coded y,uvDC,uvAC intra: 75.3% 49.1% 13.0% inter: 25.9% 7.3% 0.6%
[libx264 @ 0x55e80cc58780] i16 v,h,dc,p: 31% 31% 22% 16%
[libx264 @ 0x55e80cc58780] i8 v,h,dc,ddl,ddr,vr,hd,vl,hu: 18% 25% 14%  5%  8%  7%  9%  6%  8%
[libx264 @ 0x55e80cc58780] i4 v,h,dc,ddl,ddr,vr,hd,vl,hu: 19% 18% 10%  7% 10%  9% 10%  8%  8%
[libx264 @ 0x55e80cc58780] i8c dc,h,v,p: 54% 21% 19%  5%
[libx264 @ 0x55e80cc58780] Weighted P-Frames: Y:12.8% UV:0.5%
[libx264 @ 0x55e80cc58780] kb/s:9281.31
[aac @ 0x55e80cc988c0] Qavg: 161.202
[AVIOContext @ 0x55e80cc49000] Statistics: 356161255 bytes read, 8187 seeks
[AVIOContext @ 0x55e80cc45b80] Statistics: 111578 bytes read, 0 seeks
